<?xml version="1.0" encoding="utf-8"?>
<!-- Generator: Adobe Illustrator 22.1.0, SVG Export Plug-In . SVG Version: 6.00 Build 0)  -->
<svg version="1.1" id="图层_1" xmlns="http://www.w3.org/2000/svg" xmlns:xlink="http://www.w3.org/1999/xlink" x="0px" y="0px"
	 viewBox="0 0 117 85" style="enable-background:new 0 0 117 85;" xml:space="preserve">
<style type="text/css">
	.st0{fill:#FFFFFF;}
	.st1{fill-rule:evenodd;clip-rule:evenodd;fill:#E50012;}
</style>
<g>
	<g>
		<path class="st0" d="M20.7,68.6c0.2,0,0.3,0,0.4-0.1c0,0,0.1-0.1,0.1-0.2c0-0.1,0-0.2,0-0.2c0-0.1-0.1-0.1-0.3-0.2
			c-0.1-0.1-0.4-0.1-0.7-0.1c-0.3,0-0.5-0.4-0.6-1.2c0-0.2,0-0.3-0.1-0.3c0,0-0.3-0.1-0.8-0.1c-0.5,0-0.7,0-0.8,0.1
			c-0.1,0-0.2,0.1-0.2,0.2c0,0.7-0.2,1.1-0.7,1.2c-1,0.3-1.5,0.3-1.7,0c-0.1-0.1-0.1-0.4-0.2-0.7c0-0.3,0-0.5-0.1-0.6
			c-0.1-0.1-0.2-0.1-0.5-0.1l-1,0c-0.2,0-0.3,0-0.4,0.1c-0.1,0-0.1,0.2-0.2,0.4c-0.3,0.8-0.9,1.6-1.8,2.4c-0.9,0.8-2,1.2-3.2,1.2
			c-0.6,0-1.1-0.1-1.5-0.2c-0.4-0.1-0.8-0.3-1.1-0.5c-0.3-0.2-0.5-0.4-0.7-0.7c-0.2-0.2-0.2-0.5-0.2-0.7c0-0.1,0-0.2,0.1-0.2
			c0.1,0,0.2-0.1,0.3-0.1c0.1,0,0.2,0,0.3,0c0.1,0,0.2,0,0.2,0c0.9,0,1.8-0.3,2.9-0.8c1-0.5,1.7-1.1,2.1-1.8
			c0.3-0.7,0.5-1.5,0.5-2.4c0-0.9-0.1-1.6-0.1-2c0-0.4-0.1-0.6-0.2-0.7c-0.1-0.1-0.2-0.1-0.4,0c-0.2,0.1-0.4,0.1-0.7,0
			c-0.5,0-0.9-0.1-1.2-0.2S7.9,60,7.7,59.8c-0.2-0.2-0.3-0.4-0.4-0.6c-0.1-0.2-0.1-0.4-0.1-0.5c0-0.2,0.3-0.4,0.8-0.4
			c3.8,0,6.7-0.8,8.8-2.5c0.2-0.2,0.4-0.3,0.6-0.3c0.2,0,0.4,0,0.6,0.1c0.2,0.1,0.3,0.2,0.4,0.3c0.1,0.1,0.2,0.3,0.2,0.4
			c0,0.1,0,0.2-0.1,0.3c-0.1,0.1-0.2,0.2-0.2,0.3c0,0.1,0,0.2,0.1,0.3s0.3,0.1,0.7,0.1c0.7,0.1,1,0.3,1,0.8c0,0.3-0.3,0.6-0.8,0.9
			c-0.5,0.3-0.8,0.5-0.8,0.7c0,0.1,0.1,0.2,0.2,0.2c0.1,0.1,0.3,0.1,0.5,0.1c0.2,0,0.4,0,0.6-0.1c0.2-0.1,0.4-0.1,0.5-0.3
			c0.1-0.1,0.4-0.1,0.7-0.1c0.4,0,0.7,0.2,0.9,0.5c0.3,0.3,0.4,0.6,0.4,1c0,0.3,0,0.8-0.1,1.5c-0.1,0.3-0.1,0.7-0.1,1
			c0,0.4,0,0.7,0,1c0,0.3,0,0.6,0,0.9c0,0.3,0,0.4,0,0.5c0,0.2,0,0.3,0.1,0.4c0,0,0.1,0.1,0.2,0.1c1,0.1,1.7,0.4,2.1,0.7
			c0.4,0.3,0.6,0.8,0.6,1.3c0,0.1,0.1,0.2,0.4,0.2l2.9,0c0.9,0,1.4-0.1,1.6-0.2c0.2-0.2,0.5-0.3,1-0.3c0.5,0,0.9,0.1,1.3,0.4
			c0.4,0.2,0.6,0.5,0.6,0.9c0,0.1-0.1,0.5-0.2,1.2c-0.1,0.6-0.2,1.2-0.3,1.8c-0.1,0.8-0.5,1.2-1.2,1.2c-0.2,0-0.4,0-0.5,0
			c-1.2-0.2-2.2-0.4-3.1-0.4s-1.6,0-2.1,0c-0.5,0-0.8,0-0.9,0c-0.1,0-0.1,0.1-0.1,0.3l0,1.1c0,0.3,0,0.4,0.1,0.5
			c0.1,0.1,0.2,0.1,0.5,0L28,75c0.3,0,0.4-0.1,0.4-0.2l-0.1-0.5c0-0.6,0.3-0.9,0.9-0.9c0.4,0,0.9,0.2,1.5,0.5
			c0.7,0.3,1.3,0.7,1.8,1.1c0.8,0.5,1.5,1.1,1.9,1.6c0.4,0.5,0.7,0.9,0.7,1.3c0,0.5-0.3,0.7-0.8,0.7c-0.3,0-0.8-0.2-1.7-0.6
			c-0.9-0.4-1.5-0.8-1.9-1.1c-0.3-0.3-0.6-0.4-0.7-0.4c-0.2,0-0.3,0-0.4,0c-5.3,0.6-9.4,1.1-12.3,1.5c-2.8,0.3-4.5,0.5-4.9,0.5
			c-0.5,0-0.9-0.2-1.2-0.6c-0.3-0.4-0.4-0.7-0.4-1.2c0-0.4,0.1-0.8,0.4-1.1c0.3-0.3,0.8-0.4,1.4-0.4l3.8-0.1c2.8,0,4.2-0.1,4.3-0.1
			c0.1-0.1,0.2-0.6,0.2-1.6c0-0.1,0-0.2-0.1-0.2c-0.1,0-0.2-0.1-0.4-0.1h-3.6c-0.3,0-0.6,0.1-0.8,0.2c-0.2,0.1-0.4,0.3-0.6,0.4
			C15.5,74,15.3,74,15.1,74c-0.2,0-0.4,0-0.6-0.1c-0.2-0.1-0.4-0.2-0.6-0.3c-0.2-0.1-0.3-0.4-0.3-0.6l-0.6-3.3
			c0-0.4,0.2-0.8,0.6-1.2c0.4-0.4,0.8-0.6,1.2-0.6c0.5,0,0.8,0.1,1.1,0.3c0.3,0.2,0.5,0.3,0.8,0.3H20.7z M15.8,59.6
			c0.4-0.2,0.6-0.5,0.7-0.6c0.1-0.2,0.1-0.3,0-0.4c-0.1-0.1-0.2-0.1-0.4-0.2c-0.2,0-0.3-0.1-0.3-0.1c-0.1,0-0.3,0.1-0.8,0.3
			c-0.5,0.2-0.9,0.4-1.4,0.7c-0.9,0.4-1,0.6-0.2,0.6h1.3C15.2,60,15.5,59.9,15.8,59.6z M14.8,62.3c0.2,0,0.4,0,0.4-0.1
			c0-0.1,0.1-0.2,0.1-0.4c0-0.3,0-0.4-0.1-0.4c-0.1,0-0.2,0-0.4,0c-0.2,0-0.5,0-0.8,0.1c-0.3,0-0.5,0.1-0.6,0.1
			c0,0.1-0.1,0.1-0.1,0.2c0,0.1,0,0.2,0,0.3c0,0.1,0.1,0.2,0.2,0.2c0.1,0.1,0.2,0.1,0.4,0H14.8z M14.8,64.9c0.2,0,0.4,0,0.4-0.1
			c0-0.1,0.1-0.2,0.1-0.4c0-0.2,0-0.4-0.1-0.4c-0.1,0-0.3-0.1-0.8-0.1c-0.5,0-0.7,0-0.8,0.1c-0.1,0-0.2,0.2-0.2,0.4
			c0,0.2,0,0.4,0.1,0.4c0,0.1,0.1,0.1,0.3,0.1H14.8z M21.1,71v-0.5c0-0.3-0.1-0.4-0.4-0.4c-0.3,0-0.6,0-1,0c-0.4,0-0.8,0-1.4,0
			c-0.5,0-0.9,0-1.2,0c-0.3,0-0.5,0-0.5,0c-0.1,0-0.2,0.1-0.2,0.3v0.5c0,0.2,0,0.3,0.1,0.3c0.1,0,0.2,0,0.3,0h3.7
			c0.2,0,0.4,0,0.4-0.1S21.1,71.2,21.1,71z M19.2,62.2c0.3,0,0.5-0.1,0.5-0.3c0-0.5-0.2-0.8-0.7-0.8h-0.6c-0.2,0-0.3,0-0.4,0.1
			c-0.1,0-0.1,0.2-0.1,0.4c0,0.2,0,0.4,0.1,0.4c0,0.1,0.2,0.1,0.4,0.1H19.2z M19.2,64.9c0.2,0,0.3,0,0.4-0.1c0-0.1,0.1-0.2,0.1-0.5
			c0-0.3,0-0.4-0.1-0.5c-0.1-0.1-0.3-0.1-0.8-0.1c-0.5,0-0.7,0-0.8,0.1c-0.1,0.1-0.1,0.3-0.1,0.5c0,0.3,0,0.4,0.1,0.4
			c0,0,0.2,0.1,0.4,0.1H19.2z M37.3,64.4c0.8,0,1.4,0,1.9,0c0.5,0,0.8,0,0.9,0c0.3,0,0.5,0,0.5,0.2c0,0.1-0.1,0.4-0.3,0.8
			c-0.2,0.4-0.6,0.8-1.2,1.2c-0.6,0.4-1.1,0.6-1.6,0.6c-0.5,0-0.9-0.1-1.4-0.4c-1.2-0.6-2.4-1-3.4-1c-0.2,0-0.3,0-0.3,0.1
			c0,0.1-0.1,0.3-0.1,0.7c0,0.2,0,0.5-0.1,0.6c-0.1,0.2-0.2,0.3-0.4,0.4c-0.2,0.1-0.4,0.2-0.6,0.2c-0.2,0.1-0.4,0.1-0.6,0.1
			c-0.6,0-0.9-0.5-0.9-1.4v-0.6c0-0.2,0-0.3-0.1-0.3c-0.1-0.1-0.2-0.1-0.4-0.1c-1.7,0-3,0.1-3.7,0.3c-0.8,0.2-1.3,0.3-1.5,0.3
			c-0.6,0-0.9-0.3-0.9-0.9c0-0.2,0-0.4,0.2-0.5c0.1-0.2,0.2-0.3,0.4-0.5c0.2-0.1,0.3-0.2,0.5-0.3c0.2-0.1,0.3-0.1,0.5-0.1
			c0.3,0,0.6,0,0.8,0.1c0.3,0.1,0.6,0.1,0.9,0.1l1.1,0h2c0.2,0,0.3,0,0.4-0.1c0.1-0.1,0.1-0.2,0.1-0.5c0-0.2,0-0.4-0.1-0.4
			c0,0-0.1-0.1-0.3-0.1l-1.5,0c-0.2,0-0.5,0.1-0.9,0.3c-0.4,0.2-0.8,0.4-1.1,0.4c-0.3,0-0.5,0-0.6-0.1c-0.1-0.1-0.2-0.2-0.2-0.4
			c0-0.2,0.2-0.4,0.4-0.6c0.2-0.1,0.3-0.3,0.5-0.5c0.2-0.2,0.3-0.3,0.4-0.5c0.1-0.1,0.2-0.3,0.3-0.4c0.1-0.1,0.1-0.2,0.1-0.2
			c0,0,0-0.1-0.1-0.1c0,0-0.1,0-0.3,0.1c-1.1,0.5-1.9,0.7-2.6,0.7c-0.3,0-0.6,0-0.9-0.2c-0.3-0.1-0.5-0.3-0.5-0.5
			c0-0.3,0.2-0.6,0.7-0.6c1.3-0.3,2.4-0.7,3.3-1.2c0.9-0.6,1.4-0.9,1.4-1.1c0-0.1-0.1-0.1-0.3-0.1c-0.3,0-0.5,0-0.9,0.1
			c-0.3,0-0.7,0.1-1,0.1c-0.3,0-0.6,0.1-0.7,0.1c-0.6,0-0.8-0.2-0.8-0.5c0-0.1,0.1-0.4,0.3-0.7c0.2-0.3,0.4-0.6,0.7-0.8
			c0.3-0.2,0.5-0.3,0.6-0.3c0.1,0,0.3,0,0.5,0.1c0.2,0.1,0.5,0.1,0.9,0.2c0.4,0.1,1,0.1,1.8,0.1l1.5-0.1c0.5,0,0.9,0,1.3,0.1
			c0.4,0.1,0.7,0.1,0.9,0.1c0.2,0,0.4,0,0.7-0.1c0.3-0.1,0.5-0.1,0.6-0.1c0.8,0,1.2,0.4,1.2,1.3c0,0.6-0.2,1.2-0.7,1.9
			c-0.5,0.6-1.1,1.1-1.8,1.4c-0.3,0.1-0.4,0.2-0.4,0.3c0,0.2,0.1,0.3,0.4,0.3c0.5,0,0.9,0,1.3,0c0.4,0,0.8,0,1.1,0
			c0.7,0,1.1,0.1,1.2,0.1c0.1,0,0.2,0.1,0.2,0.3c0,0.5-0.4,0.8-1.2,0.8h-2.6c-0.2,0-0.3,0-0.4,0.1c-0.1,0-0.1,0.2-0.1,0.5
			c0,0.2,0,0.4,0.1,0.5c0,0.1,0.2,0.1,0.4,0.1L37.3,64.4z M25.4,70.1c-0.2,0-0.4,0-0.4,0c-0.1,0-0.1,0.1-0.1,0.3l0,0.8
			c0,0.1,0,0.2,0.1,0.2c0,0,0.2,0,0.3,0l3.3,0c0.5,0,0.8-0.1,1-0.2c0.2-0.1,0.4-0.3,0.4-0.5c0-0.2,0-0.3-0.2-0.4
			c-0.2-0.1-0.4-0.2-0.8-0.1L25.4,70.1z M28.6,61.8c-0.1,0.1,0,0.1,0.4,0.1h0.4c0.3,0.1,0.5,0,0.6-0.2c0.1-0.2-0.1-0.4-0.5-0.6
			c-0.3-0.2-0.4-0.3-0.4-0.6c0-0.2,0-0.4,0.2-0.5c0.1-0.1,0.3-0.2,0.6-0.1c0.3,0.1,0.6,0.1,0.9,0.1c0.7,0,1.2-0.1,1.4-0.4
			c0.3-0.3,0.4-0.5,0.4-0.6c0-0.2-0.3-0.3-0.8-0.3c-0.5-0.1-0.8-0.1-1-0.1c-0.2,0-0.4,0.1-0.7,0.3c-0.5,0.4-1.1,0.9-1.9,1.5
			c-0.2,0.1-0.2,0.2-0.2,0.2s0.1,0.1,0.4,0.2c0.3,0.1,0.4,0.3,0.4,0.5C28.7,61.4,28.7,61.6,28.6,61.8z"/>
		<path class="st0" d="M61.7,62.8c0.2,0,0.5-0.1,0.7-0.4c0.2-0.1,0.4-0.3,0.8-0.6s0.9-0.6,1.4-1c0.6-0.4,1.1-0.8,1.5-1.1
			c0.4-0.3,0.8-0.6,1.1-0.8c0.6-0.4,1-0.7,1.2-0.7c0.3,0,0.6,0.1,0.9,0.4c0.3,0.3,0.4,0.6,0.4,0.9c0,0.6-0.7,1.4-2.1,2.4
			c-0.6,0.3-0.8,0.6-0.8,0.7S67,63,67.2,63c0.1,0,0.4,0,0.8,0s1,0,1.7,0c0.7,0,1.4,0,2,0c0.6,0,1.2,0,1.8,0l2.7-0.1
			c0.3,0,0.5,0.1,0.5,0.4c0,0.3-0.4,0.9-1.3,1.9c-0.4,0.5-0.9,0.9-1.5,1.1c-0.6,0.2-1.2,0.4-1.8,0.4c-0.7,0-1.3,0-2.1-0.2
			c-0.7-0.1-1.5-0.4-2.3-0.6c-0.6-0.2-1.4-0.3-2.4-0.4c-1.1-0.1-1.7-0.2-2-0.2c-0.3,0-0.6,0.1-0.9,0.3l-3.2,1.9
			c-0.5,0.3-0.9,0.6-1,0.7C58,68.1,58,68.3,58,68.4c0,0.1,0,0.2,0.1,0.3c0.1,0,0.2,0.1,0.5,0.1l7.9,0.2c0.9,0,1.5,0.1,1.8,0.2
			c0.3,0.1,0.4,0.4,0.4,0.9s-0.1,0.8-0.4,0.9c-0.3,0.1-0.7,0.2-1.3,0.2l-8.4,0c-0.3,0-0.5,0-0.6,0.1c-0.1,0.1-0.1,0.4-0.1,1.1
			c-0.1,1,0.4,1.6,1.6,2c1.2,0.4,3.1,0.5,5.7,0.5c1.6,0.1,2.8-0.2,3.7-0.7c0.9-0.5,1.7-1.4,2.4-2.6c0.3-0.6,0.5-1,0.7-1.1
			c0.2-0.1,0.3-0.2,0.4,0c0.1,0.1,0.2,0.4,0.2,0.7s0.1,0.6,0.1,0.9c0,0.9-0.1,1.8-0.4,2.5c-0.3,0.8-0.7,1.4-1.2,2
			c-0.5,0.6-1.2,1-2,1.3c-0.8,0.3-1.7,0.4-2.8,0.4c-0.7,0-1.5,0-2.4-0.1c-0.9,0-1.8-0.1-2.9-0.2c-2.1-0.2-3.6-0.5-4.4-1
			c-0.8-0.6-1.4-1.1-1.7-1.6c-0.4-0.5-0.5-1.7-0.5-3.3l0-1.3c0-0.2-0.1-0.3-0.2-0.3c-0.1,0-0.6,0.2-1.6,0.7c-0.5,0.2-1,0.5-1.7,0.8
			c-0.6,0.3-1.3,0.6-2.1,1c-0.8,0.3-1.5,0.6-2,0.8c-0.6,0.2-1,0.4-1.4,0.5c-0.4,0.1-0.7,0.2-1,0.2c-0.3,0-0.5,0.1-0.7,0.1
			c-0.9,0-1.6-0.3-2.1-0.9C41.2,73,41,72.5,41,72.1c0-0.4,0.3-0.6,0.9-0.7c1.8-0.2,4-0.8,6.7-1.8c2.7-0.9,4.7-1.8,6.2-2.6
			c0.7-0.4,1.4-0.7,1.9-1c0.5-0.2,0.8-0.4,1.1-0.6c0.5-0.3,0.7-0.4,0.7-0.5c0-0.1-0.2-0.1-0.6-0.1c-1,0-1.8,0-2.4,0
			c-0.6,0-1.1,0-1.5,0c-0.7,0-1.8,0.2-3.5,0.4c-1.7,0.2-2.9,0.4-3.6,0.6c-0.4,0.1-0.8,0.2-1.3,0.3c-0.5,0.1-1.1,0.3-1.8,0.5
			c-0.2,0.1-0.3,0.1-0.5,0.1s-0.4,0-0.5-0.1c-0.2-0.1-0.3-0.2-0.4-0.4c-0.1-0.2-0.2-0.4-0.2-0.7c0-0.7,0.3-1.3,1-1.8
			c0.7-0.5,1.3-0.8,2-0.8s1.2,0.1,1.6,0.2c0.5,0.1,1.1,0.2,1.9,0.2c0.4,0,0.8,0,1.2,0c0.4,0,0.7-0.1,1.1-0.1
			c0.4-0.1,0.9-0.1,1.8-0.2c0.8,0,1.9-0.1,3.2-0.1c0.2,0,0.3,0,0.3-0.1s0.1-0.2,0.1-0.4v-1.1c0-0.1,0-0.2-0.1-0.2c0,0-0.5,0-1.5,0
			c-0.5,0-1,0-1.5,0c-0.5,0-1,0-1.6,0c-1.1,0.1-1.9,0.2-2.4,0.3c-0.5,0.2-0.9,0.2-1.1,0.2c-0.6,0-0.8-0.3-0.8-0.9
			c0-0.6,0.3-1.1,0.9-1.6c0.6-0.5,1.2-0.8,1.8-0.8c0.3,0,0.6,0.1,0.9,0.2c0.4,0.1,1.1,0.2,2.3,0.2l2.7,0.1c0.2,0,0.3,0,0.4-0.1
			c0.1,0,0.1-0.2,0.1-0.4v-1c0-0.6,0.2-1.1,0.4-1.4c0.2-0.3,0.5-0.4,0.9-0.4c0.3,0.1,0.6,0.1,1,0.1c0.3,0,0.6,0.1,0.8,0.2
			c0.2,0.1,0.4,0.3,0.5,0.5c0.1,0.2,0.2,0.6,0.1,1l0,1.2c0,0.1,0,0.2,0.1,0.2c0.1,0,0.3,0,0.7,0H62c1.6,0.1,2.5,0.1,2.7,0.2
			c0.3,0.1,0.4,0.3,0.4,0.6c0,0.3-0.1,0.6-0.3,0.8c-0.2,0.2-0.7,0.3-1.3,0.3l-1.6,0c-1.3,0.1-2,0.1-2,0.1c-0.1,0-0.1,0.1-0.1,0.4
			l0,1.2c0,0.2,0.2,0.3,0.6,0.3H61.7z"/>
		<path class="st0" d="M95.6,70.4c0.1,1.5,0.1,2.7,0.1,3.6c0,1,0.1,1.7,0.1,2.2c0,0.9-0.2,1.6-0.6,2c-0.4,0.4-1,0.5-1.6,0.5
			s-1.1-0.2-1.3-0.7c-0.2-0.5-0.4-1.3-0.4-2.3c0-1.1,0-2.2,0.1-3.3c0.1-1.1,0.1-2.1,0.1-2.8c0-0.1,0-0.1-0.1-0.1
			c-0.1,0-0.2,0-0.3,0.1c-1,0.7-2.2,1.5-3.7,2.4c-1.5,0.8-2.9,1.6-4.4,2.4c-0.8,0.3-1.4,0.6-1.8,0.8c-0.5,0.2-0.8,0.3-1,0.4
			c-0.4,0.1-0.7,0.1-1.1,0.1c-0.5,0-0.9-0.1-1.3-0.2c-0.4-0.1-0.8-0.3-1.1-0.6c-0.3-0.2-0.6-0.5-0.8-0.9c-0.2-0.3-0.3-0.7-0.3-1
			c0-0.2,0.2-0.4,0.5-0.4c1.2-0.2,2.4-0.4,3.6-0.7c1.2-0.3,2.6-0.7,3.9-1.2c2.8-0.9,4.7-1.9,5.9-2.8c1.2-0.9,1.8-1.5,1.8-1.8
			c0-0.1-0.2-0.2-0.6-0.2c-0.8,0-1.8,0.1-2.9,0.2c-1,0.1-1.7,0.2-2.1,0.3c-0.3,0.1-0.6,0.1-0.9,0.1c-0.3,0-0.5-0.1-0.7-0.3
			c-0.2-0.2-0.3-0.5-0.3-0.9c0-0.4,0.3-0.8,0.9-1.3c0.3-0.2,0.6-0.4,0.8-0.5s0.4-0.2,0.6-0.2c0.2,0,0.3,0,0.4,0
			c0.1,0,0.3,0.1,0.4,0.2c0.3,0.2,1.1,0.3,2.3,0.3c0.3,0,0.6,0,0.7,0c0.2,0,0.4,0,0.8,0c0.2,0,0.3,0,0.4,0c0.1,0,0.2-0.1,0.2-0.1
			c0-0.1,0.1-0.2,0.1-0.4c0-0.2,0-0.5,0-0.8c0-0.7,0.1-1.2,0.4-1.3c0.2-0.2,0.6-0.2,1-0.2c0.8,0,1.4,0.2,1.8,0.6
			c0.4,0.4,0.6,0.8,0.6,1.2v0.9c0,0.2,0.1,0.4,0.4,0.4c0.7,0,1.4,0,2.1,0.1c0.7,0,1.4,0,2.2,0.1c0.8,0,1.3,0.1,1.8,0.1
			c0.4,0,0.7,0.1,0.8,0.1c0.3,0.1,0.4,0.1,0.5,0.3c0.2,0.1,0.2,0.4,0.2,0.7c0,0.2,0,0.3-0.1,0.4c-0.1,0.1-0.2,0.2-0.4,0.3
			c-0.2,0.1-0.4,0.1-0.8,0.1c-0.3,0-0.8,0-1.3,0l-5.3,0c-0.3,0-0.4,0.1-0.4,0.1c0,0.1,0.1,0.3,0.3,0.5c0.1,0.1,0.4,0.3,0.9,0.6
			c0.5,0.3,1.1,0.6,1.9,1c0.8,0.4,1.7,0.9,2.7,1.3c1,0.4,2.1,0.9,3.4,1.3c1.3,0.4,2.4,0.8,3.5,1.1c1.1,0.3,2.1,0.6,3.1,0.8
			c0.5,0.1,0.8,0.4,0.8,0.7c0,0.3-0.6,1-1.8,1.9c-1.2,0.9-2.3,1.4-3.4,1.4c-1.1,0-2.2-0.4-3.2-1.3c-2.1-1.7-3.9-3.2-5.4-4.5
			c-1.6-1.3-2.4-2-2.4-2c-0.1-0.1-0.2-0.1-0.3-0.1s-0.2,0.1-0.2,0.4V70.4z M108.2,60.5l0.2,2.1c0,1-0.2,1.8-0.7,2.3
			c-0.4,0.5-0.9,0.8-1.4,0.8c-0.5,0-0.8-0.1-0.8-0.4c0-0.7,0-1.5-0.1-2.4c0-0.5-0.1-0.9-0.2-1.1c-0.1-0.3-0.2-0.5-0.3-0.7
			c-0.1-0.2-0.3-0.3-0.4-0.3c-0.2-0.1-0.3-0.1-0.5-0.2c-0.3-0.1-1.4-0.2-3.2-0.3c-1.8-0.1-3.5-0.2-4.9-0.2c-1.5,0-3.1,0.1-4.7,0.1
			c-1.2,0.1-2.2,0.1-3,0.2c-0.8,0.1-1.4,0.1-1.8,0.2c-0.7,0.1-1.3,0.4-1.9,0.8c-0.5,0.4-0.8,0.9-0.9,1.6c-0.1,0.4-0.1,0.9-0.2,1.3
			c0,0.4-0.1,0.8-0.1,1.2c0,0.2-0.1,0.4-0.2,0.5c-0.1,0.1-0.3,0.2-0.5,0.3c-0.2,0.1-0.4,0.1-0.6,0c-0.2,0-0.4-0.1-0.5-0.3
			c-0.2-0.2-0.3-0.5-0.4-0.9c-0.1-0.4-0.2-0.9-0.2-1.4c-0.1-0.5-0.1-1,0-1.5c0-0.5,0.1-1,0.2-1.3c0.1-0.4,0.1-0.9,0.2-1.2
			c0-0.4,0.1-0.7,0.2-0.9s0.3-0.5,0.5-0.6c0.2-0.1,0.5-0.2,0.9-0.2c0.5,0,0.9,0.1,1.3,0.3c0.4,0.2,0.9,0.3,1.5,0.3
			c0.3,0,0.7,0,1.1,0c0.4,0,0.9-0.1,1.4-0.1c0.5,0,1.1-0.1,1.7-0.1c0.6,0,1.1-0.1,1.7-0.1c0.3,0,0.5-0.1,0.6-0.4
			c0-0.4,0.1-0.7,0.2-0.9c0-0.2,0.1-0.4,0.2-0.6c0.1-0.2,0.3-0.5,0.6-0.7c0.3-0.2,0.5-0.3,0.8-0.3c0.2,0.1,0.5,0.1,0.8,0.1
			c0.3,0.1,0.6,0.2,0.9,0.3c0.3,0.2,0.6,0.4,0.8,0.7c0.2,0.3,0.3,0.8,0.3,1.3c0,0.2,0.2,0.3,0.6,0.3c1.1,0,2.1,0,2.9,0
			c0.8,0,1.4,0,1.8,0.1l2.1,0.1c0.5,0,0.9-0.1,1.1-0.3c0.6-0.4,1.2-0.4,1.9,0c0.2,0.1,0.3,0.3,0.5,0.4c0.1,0.1,0.3,0.3,0.4,0.5
			c0.2,0.3,0.4,0.5,0.4,0.7C108.2,59.7,108.2,60,108.2,60.5z"/>
	</g>
	<g>
		<path class="st1" d="M47.8,31.9c0-0.6,0-1.3,0-1.9c-2,0-4,0-6,0c0.5,2,1.4,3.8,2.6,5.5c1.9,2.6,4.3,4.6,7.4,5.9c0-0.1,0-0.2,0-0.2
			c0-0.7,0-1.4,0-2.2c0-0.3,0.1-0.4,0.4-0.4c4.1,0,8.3,0,12.4,0c0.4,0,0.4,0.1,0.4,0.4c0,0.7,0,1.4,0,2.2c0,0.1,0,0.1,0,0.2
			c2.4-1,4.4-2.4,6.1-4.3c1.9-2.1,3.2-4.4,3.9-7.1c-2,0-4,0-6,0c0,0.6,0,1.2,0,1.9c0.1,0,0.1,0,0.2,0c0.9,0,1.7,0,2.6,0
			c0.4,0,0.5,0.2,0.3,0.5c-0.4,0.7-0.7,1.3-1.2,1.9c-0.6,0.9-1.3,1.7-2.2,2.5c-0.5,0.4-1,0.8-1.5,1.2c-0.1,0-0.1,0.1-0.2,0.1
			c-0.2,0.1-0.3,0-0.4-0.2c0-0.1,0-0.1,0-0.2c0-3.2,0-6.3,0-9.5c0-0.4,0.1-0.4,0.4-0.4c3.4,0,6.8,0,10.2,0c0.4,0,0.5,0.1,0.4,0.5
			c-0.1,1-0.3,2.1-0.7,3c-0.3,0.8-0.6,1.6-0.9,2.4c-0.5,1.2-1.2,2.3-1.9,3.3c-0.9,1.3-2,2.4-3.2,3.5c-2.3,2-5,3.4-8.1,4.1
			c-0.1,0-0.1,0-0.2,0c-0.2,0-0.3-0.1-0.3-0.3c0-0.6,0-1.2,0-1.9c0-0.5,0-0.9,0-1.4c-2.8,0-5.6,0-8.4,0c0,0.1,0,0.1,0,0.2
			c0,1,0,2,0,3c0,0.4-0.2,0.5-0.5,0.4c-1.1-0.3-2.2-0.6-3.2-1.1c-1.3-0.6-2.5-1.3-3.7-2.1c-1.2-0.9-2.3-1.9-3.3-3.1
			c-1.1-1.3-2.1-2.7-2.8-4.3c-0.7-1.4-1.2-2.9-1.5-4.4c-0.1-0.5-0.2-0.9-0.2-1.4c0-0.3,0.1-0.4,0.4-0.4c0,0,0.1,0,0.1,0
			c3.4,0,6.8,0,10.2,0c0.4,0,0.4,0.1,0.4,0.4c0,3.2,0,6.3,0,9.5c0,0,0,0.1,0,0.1c0,0.3-0.2,0.4-0.5,0.2c-0.3-0.2-0.6-0.4-0.8-0.6
			c-1.2-1-2.3-2.1-3.1-3.3c-0.4-0.6-0.7-1.1-1-1.7c-0.2-0.3,0-0.4,0.3-0.4c0.9,0,1.7,0,2.6,0C47.7,31.9,47.7,31.9,47.8,31.9z"/>
		<path class="st1" d="M69.2,21.8c0,0.6,0,1.2,0,1.9c2,0,4,0,6,0c-0.6-2.1-1.5-4-2.8-5.8c-1.8-2.5-4.2-4.3-7.2-5.6
			c0,0.1,0,0.1,0,0.2c0,0.7,0,1.5,0,2.2c0,0.3-0.1,0.4-0.4,0.4c-4.2,0-8.3,0-12.5,0c-0.3,0-0.4-0.1-0.4-0.4c0-0.7,0-1.4,0-2.2
			c0-0.1,0-0.1,0-0.2c-2.2,0.9-4,2.2-5.6,3.8c-2.2,2.2-3.6,4.7-4.4,7.6c2,0,4,0,6,0c0-0.6,0-1.2,0-1.9c-0.1,0-0.1,0-0.2,0
			c-0.9,0-1.7,0-2.6,0c-0.4,0-0.5-0.2-0.3-0.5c0.8-1.5,1.7-2.9,3-4c0.6-0.5,1.2-1,1.8-1.5c0,0,0.1-0.1,0.1-0.1
			c0.2-0.1,0.4,0,0.4,0.2c0,0,0,0.1,0,0.1c0,3.2,0,6.3,0,9.5c0,0,0,0.1,0,0.1c0,0.2-0.1,0.2-0.3,0.2c-3.5,0-6.9,0-10.4,0
			c-0.4,0-0.5-0.1-0.4-0.5c0.2-1.8,0.7-3.6,1.5-5.3c0.8-1.9,1.9-3.6,3.3-5.1c1.6-1.8,3.5-3.2,5.6-4.3c1.4-0.7,2.8-1.3,4.3-1.6
			c0,0,0.1,0,0.1,0c0.2,0,0.4,0.1,0.4,0.3c0,0.5,0,1,0,1.5c0,0.5,0,1,0,1.5c0,0.1,0,0.1,0,0.2c2.8,0,5.6,0,8.4,0c0-0.1,0-0.1,0-0.2
			c0-1,0-2,0-3c0-0.3,0.2-0.4,0.5-0.4c2.4,0.6,4.6,1.6,6.5,2.9c1.1,0.8,2.1,1.6,3.1,2.6c1.1,1.2,2,2.4,2.8,3.8c0.9,1.6,1.6,3.2,2,5
			c0.2,0.7,0.3,1.4,0.4,2.1c0,0.2-0.1,0.3-0.3,0.4c-0.1,0-0.1,0-0.2,0c-3.4,0-6.9,0-10.3,0c-0.2,0-0.3-0.1-0.3-0.3
			c0-0.1,0-0.1,0-0.2c0-3.1,0-6.3,0-9.4c0,0,0-0.1,0-0.1c0-0.1,0.1-0.2,0.2-0.3c0.1-0.1,0.2,0,0.3,0c0.3,0.2,0.6,0.4,0.8,0.6
			c1.2,0.9,2.2,2,3,3.2c0.4,0.6,0.7,1.2,1.1,1.8c0.2,0.3,0,0.5-0.3,0.5c-0.9,0-1.7,0-2.6,0C69.3,21.8,69.2,21.8,69.2,21.8z"/>
		<path class="st1" d="M66.1,25.9c0,0.6,0,1.2,0,1.8c0,0.6-0.1,1.2-0.2,1.8c0,0.4,0,0.8,0,1.2c0.1,0.8,0.2,1.7,0.1,2.5
			c0,0.8,0,1.7,0.2,2.5c0.1,0.4,0.2,0.9,0.2,1.4c0,0.5-0.2,1-0.4,1.5c0,0.1-0.1,0.2-0.2,0.2c-0.1,0.1-0.3,0.2-0.5,0.1
			c-0.2-0.1-0.3-0.2-0.3-0.4c0-0.5-0.2-0.9-0.4-1.4c-0.2-0.4-0.2-0.8-0.3-1.3c-0.1-0.7-0.1-1.4-0.2-2.2c-0.1-0.8-0.1-1.6-0.1-2.4
			c0-0.8,0-1.7-0.1-2.5c0-1.2-0.1-2.4-0.1-3.6c0-0.5,0-1.1-0.2-1.6c-0.3-1-1.1-1.7-2.1-2c-0.6-0.2-1.3-0.3-2-0.4
			c-0.6,0-1.1-0.1-1.7,0c-0.6,0-1.2,0.1-1.9,0.2c-1.1,0.2-1.8,0.8-2.3,1.6c-0.5,0.8-0.8,1.6-0.9,2.5c-0.1,0.9-0.2,1.8-0.3,2.7
			c-0.1,0.9-0.1,1.9-0.2,2.8c0,0.5-0.1,1.1-0.2,1.6c-0.1,0.7-0.2,1.4-0.3,2.1c-0.1,0.8-0.2,1.7-0.3,2.5c0,0.4-0.1,0.7-0.4,1.1
			c0,0.1-0.1,0.1-0.2,0.2c-0.3,0.2-0.6,0.1-0.6-0.2c-0.1-0.3,0-0.5,0-0.8c0-0.7,0.1-1.4,0.1-2.1c0-1,0.1-2,0.1-2.9
			c0-1.4,0.1-2.8,0.1-4.2c0-1.4,0.1-2.9,0.2-4.3c0-0.4,0-0.9,0.1-1.3c0.1-0.7,0.5-1.3,1.1-1.8c0.7-0.5,1.5-0.8,2.3-1.2
			c0.4-0.2,0.9-0.4,1.3-0.6c0.2-0.1,0.4-0.3,0.6-0.4c0.3-0.3,0.4-0.6,0.4-0.9c0-0.6,0.1-1.1,0.1-1.7c0-0.5,0.3-0.9,0.8-0.9
			c0.4,0,0.7,0,1,0.3c0.4,0.3,0.6,0.7,0.6,1.1c0.1,0.5,0.2,1.1,0.2,1.6c0,0.3,0.2,0.6,0.6,0.7c0.2,0.1,0.4,0.1,0.6,0.2
			c0.2,0,0.3,0.1,0.5,0.1c0.2,0,0.5,0.1,0.7,0.1c0.6,0,1.2,0.3,1.7,0.6c1.5,0.7,2.2,1.9,2.5,3.3c0.2,0.8,0.1,1.6,0.1,2.4
			C66.1,25.7,66.1,25.8,66.1,25.9C66.1,25.9,66.1,25.9,66.1,25.9z"/>
		<path class="st1" d="M59.7,31.5c0,0-0.1,0.1-0.1,0.1c-0.1,0.3-0.2,0.5-0.3,0.8c-0.1,0.3,0.1,0.6,0.3,0.8c0.3,0.3,0.4,0.6,0.2,0.9
			c-0.2,0.6-0.4,1.3-0.8,1.8c-0.1,0.2-0.3,0.4-0.5,0.5c-0.3,0.2-0.6,0-0.7-0.3c0-0.2,0-0.4,0-0.5c0.1-0.5,0-1.1,0-1.6
			c0-0.3,0-0.6-0.1-1c0-0.6-0.1-1.2-0.1-1.9c-0.2,0.2-0.4,0.3-0.5,0.4c-0.4,0.4-0.8,0.9-1.2,1.4c-0.1,0.2-0.3,0.3-0.4,0.5
			c-0.3,0.3-0.7,0.3-1,0c-0.4-0.4-0.5-0.8-0.3-1.2c0.1-0.2,0.3-0.4,0.4-0.5c0.6-0.7,1.2-1.3,1.8-2c0.2-0.2,0.4-0.4,0.6-0.7
			c0,0,0.1-0.1,0.1-0.1c0.2-0.3,0.2-0.5-0.1-0.7c-0.1-0.1-0.3-0.2-0.5-0.3c-1-0.4-1.6-1.1-2-2c-0.2-0.5-0.4-1.1-0.3-1.7
			c0-0.5,0.2-1,0.5-1.4c0.3-0.3,0.6-0.5,1.1-0.4c0.4,0.1,0.6,0.4,0.7,0.7c0,0.1,0,0.2,0,0.4c0,0.4,0.2,0.8,0.4,1.2
			c0,0,0,0.1,0.1,0.1c0.1,0,0.2,0.1,0.3,0.1c0.1,0,0.1-0.1,0.1-0.2c0-0.6,0-1.1,0-1.7c0-0.4,0-0.8,0.3-1.2c0.3-0.4,0.9-0.6,1.3-0.4
			c0.3,0.2,0.4,0.4,0.5,0.7c0.2,0.5,0.1,1,0,1.5c-0.1,0.4-0.1,0.7-0.2,1.1c0,0.1,0,0.1,0,0.2c0,0.3,0.1,0.5,0.4,0.6
			c0.3,0.1,0.6,0,0.8-0.2c0.3-0.3,0.4-0.7,0.4-1c0.1-0.4,0.1-0.9,0.2-1.3c0.2-0.4,0.5-0.6,0.9-0.6c0.3,0,0.5,0.1,0.7,0.4
			c0.2,0.4,0.2,0.8,0.2,1.2c0,0.8-0.3,1.5-0.7,2.2c-0.3,0.4-0.7,0.8-1.2,1.2c-0.4,0.3-0.7,0.5-1.1,0.8c-0.2,0.1-0.2,0.3-0.1,0.4
			c0,0.1,0.1,0.1,0.2,0.2c0.8,0.7,1.5,1.4,2.3,2.2c0.3,0.3,0.5,0.7,0.6,1.1c0,0.2,0,0.5-0.1,0.7c0,0.2-0.3,0.3-0.6,0.3
			c-0.5,0-0.9-0.2-1.2-0.6c-0.1-0.1-0.2-0.2-0.3-0.2c-0.4-0.2-0.7-0.4-1-0.7C59.8,31.6,59.8,31.5,59.7,31.5z"/>
	</g>
</g>
</svg>
