<svg id="图层_1" data-name="图层 1" xmlns="http://www.w3.org/2000/svg" viewBox="0 0 162 45"><defs><style>.cls-1{fill:#fff;}.cls-2{fill:#e50012;fill-rule:evenodd;}</style></defs><title>logo-light</title><path class="cls-1" d="M64.24,24.24c.21,0,.35,0,.4-.08a.49.49,0,0,0,.1-.16.25.25,0,0,0,0-.24.5.5,0,0,0-.28-.21,2.34,2.34,0,0,0-.7-.08c-.35,0-.55-.42-.6-1.27a.67.67,0,0,0-.06-.36,2,2,0,0,0-.83-.08,3.61,3.61,0,0,0-.88.06.26.26,0,0,0-.16.27c0,.72-.24,1.16-.72,1.31-1,.35-1.63.35-1.85,0a2.92,2.92,0,0,1-.2-.79c0-.37,0-.59-.1-.64s-.23-.08-.5-.08l-1.08,0a.69.69,0,0,0-.38.08,1.17,1.17,0,0,0-.22.48,5.83,5.83,0,0,1-2,2.5,5.15,5.15,0,0,1-3.37,1.23A5.71,5.71,0,0,1,49.23,26a4.62,4.62,0,0,1-1.18-.55,2.61,2.61,0,0,1-.72-.73,1.49,1.49,0,0,1-.24-.75.22.22,0,0,1,.14-.22.79.79,0,0,1,.32-.06l.34,0a1.25,1.25,0,0,0,.24,0,6.77,6.77,0,0,0,3-.84A4.72,4.72,0,0,0,53.36,21a5.64,5.64,0,0,0,.55-2.55c0-1-.06-1.68-.08-2.08a1.41,1.41,0,0,0-.17-.74c-.08-.09-.2-.11-.38,0a1.61,1.61,0,0,1-.78,0,3.82,3.82,0,0,1-1.32-.2,2.43,2.43,0,0,1-.84-.5,1.54,1.54,0,0,1-.44-.64,1.81,1.81,0,0,1-.12-.58c0-.27.26-.4.8-.4q6,0,9.42-2.63a1.31,1.31,0,0,1,.66-.34,1.07,1.07,0,0,1,.62.06,1.13,1.13,0,0,1,.46.34.7.7,0,0,1,.18.46.35.35,0,0,1-.1.32,1.08,1.08,0,0,0-.2.31.24.24,0,0,0,.06.28,1.31,1.31,0,0,0,.72.16c.72.06,1.08.35,1.08.88,0,.32-.28.65-.84,1s-.84.56-.84.72.07.18.22.24a1.62,1.62,0,0,0,.52.08,3,3,0,0,0,.64-.08,1.49,1.49,0,0,0,.58-.28,1.69,1.69,0,0,1,.77-.12,1.29,1.29,0,0,1,1,.52,1.59,1.59,0,0,1,.44,1c0,.33,0,.85-.12,1.57a9.56,9.56,0,0,0-.1,1.1c0,.39,0,.75,0,1.08v1.5a1.3,1.3,0,0,0,.08.38s.11.06.24.06a4.29,4.29,0,0,1,2.2.73A1.74,1.74,0,0,1,68.9,24c0,.16.13.24.4.24l3.12,0a4,4,0,0,0,1.73-.23,1.67,1.67,0,0,1,1.08-.27,2.69,2.69,0,0,1,1.4.4,1.11,1.11,0,0,1,.68.95,10.73,10.73,0,0,1-.24,1.23,14.39,14.39,0,0,0-.28,1.91,1.18,1.18,0,0,1-1.28,1.28,2.51,2.51,0,0,1-.48,0,16.48,16.48,0,0,0-3.31-.4c-.93,0-1.67,0-2.23,0a4.94,4.94,0,0,0-.94,0c-.07,0-.1.12-.1.28l0,1.13a1,1,0,0,0,.08.52c.05.05.24.07.56,0l2.89-.12c.27,0,.4-.08.4-.24l-.08-.56c0-.62.32-.92,1-.92a3.83,3.83,0,0,1,1.61.55,19,19,0,0,1,2,1.2,10.32,10.32,0,0,1,2,1.67,2.3,2.3,0,0,1,.7,1.35.71.71,0,0,1-.8.8,6.54,6.54,0,0,1-1.81-.62,7.65,7.65,0,0,1-2-1.16c-.35-.32-.61-.48-.79-.48a2.3,2.3,0,0,0-.42,0L60.65,34.28c-3,.36-4.78.53-5.23.53a1.58,1.58,0,0,1-1.25-.61A2.13,2.13,0,0,1,53.71,33a1.6,1.6,0,0,1,.44-1.16,1.71,1.71,0,0,1,1.51-.37l4.05-.09c2.94,0,4.47-.06,4.61-.12s.2-.61.2-1.69a.33.33,0,0,0-.08-.26.83.83,0,0,0-.4-.06H60.19a1.18,1.18,0,0,0-.8.24,4.51,4.51,0,0,1-.61.44,1.59,1.59,0,0,1-.58.14,2.06,2.06,0,0,1-.66-.08,1.81,1.81,0,0,1-.6-.34.94.94,0,0,1-.32-.68l-.68-3.49a1.76,1.76,0,0,1,.6-1.24,1.83,1.83,0,0,1,1.28-.59,1.7,1.7,0,0,1,1.12.32,1.35,1.35,0,0,0,.85.31Zm-5.3-9.55A2.09,2.09,0,0,0,59.7,14c.08-.17.08-.3,0-.38a.75.75,0,0,0-.38-.18.87.87,0,0,1-.3-.1,5.16,5.16,0,0,0-.82.36l-1.5.72c-1,.42-1,.63-.16.63h1.4A1.29,1.29,0,0,0,58.94,14.69ZM57.87,17.5c.24,0,.39,0,.44-.1a.79.79,0,0,0,.08-.46c0-.27,0-.41-.1-.43a3.08,3.08,0,0,0-.42,0,7.78,7.78,0,0,0-.84.06,1.24,1.24,0,0,0-.6.15,1.1,1.1,0,0,0-.08.24.58.58,0,0,0,0,.32.38.38,0,0,0,.16.24.53.53,0,0,0,.4,0Zm0,2.75c.24,0,.38,0,.44-.1a.86.86,0,0,0,.08-.46c0-.24,0-.38-.08-.42a2.57,2.57,0,0,0-.8-.06,3.94,3.94,0,0,0-.91.06q-.18.06-.18.42a1.06,1.06,0,0,0,.06.46c0,.07.14.1.3.1Zm6.73,6.57v-.56a.39.39,0,0,0-.44-.44h-1c-.41,0-.9,0-1.46,0s-1,.05-1.28.05a1.56,1.56,0,0,0-.57.05c-.13,0-.2.12-.2.35v.56c0,.21,0,.33.1.36a1.39,1.39,0,0,0,.35,0h4a.79.79,0,0,0,.46-.08A.48.48,0,0,0,64.64,26.82Zm-2-9.35c.35,0,.52-.1.52-.29,0-.55-.25-.82-.76-.82h-.64a.81.81,0,0,0-.4.06c-.05,0-.08.2-.08.47a.88.88,0,0,0,.08.47c0,.07.19.11.4.11Zm0,2.78c.22,0,.35,0,.4-.08s.08-.21.08-.48a1,1,0,0,0-.08-.55,1.93,1.93,0,0,0-.88-.1c-.51,0-.79.05-.84.14a1.34,1.34,0,0,0-.08.55c0,.27,0,.42.08.46a.93.93,0,0,0,.44.06Zm19.28-.5L84,19.8l1,0q.48,0,.48.18a2.77,2.77,0,0,1-.36.9,3.44,3.44,0,0,1-1.29,1.32,3.11,3.11,0,0,1-1.7.68,3.24,3.24,0,0,1-1.5-.4,7.88,7.88,0,0,0-3.61-1c-.19,0-.31,0-.35.12a2.73,2.73,0,0,0-.11.72,1,1,0,0,1-.08.68,1.22,1.22,0,0,1-.46.44,3.21,3.21,0,0,1-.66.24l-.68.12c-.64,0-1-.49-1-1.45v-.6a.59.59,0,0,0-.08-.36.7.7,0,0,0-.41-.08,18.15,18.15,0,0,0-4,.32,9.32,9.32,0,0,1-1.62.32.85.85,0,0,1-1-1,1.15,1.15,0,0,1,.16-.57,1.72,1.72,0,0,1,.4-.52,2,2,0,0,1,.52-.36,1.23,1.23,0,0,1,.52-.14,3.71,3.71,0,0,1,.9.1,4.14,4.14,0,0,0,1,.1l1.16,0h2.08a.6.6,0,0,0,.41-.1.87.87,0,0,0,.08-.49,1.08,1.08,0,0,0-.06-.48c0-.05-.15-.07-.34-.07l-1.6,0a2.49,2.49,0,0,0-1,.32,3.21,3.21,0,0,1-1.17.46,1,1,0,0,1-.68-.08.4.4,0,0,1-.16-.42,1.27,1.27,0,0,1,.4-.63c.16-.15.32-.32.48-.5l.45-.52c.13-.15.24-.3.34-.43a1.25,1.25,0,0,0,.14-.24c0-.06,0-.08-.06-.08a1.05,1.05,0,0,0-.3.12,6.88,6.88,0,0,1-2.73.79,3.11,3.11,0,0,1-1-.16c-.35-.1-.53-.29-.53-.56s.25-.59.73-.67a12.52,12.52,0,0,0,3.53-1.24c1-.59,1.48-1,1.48-1.16s0-.08-.32-.08a8.61,8.61,0,0,0-.94.06l-1.09.12c-.36,0-.61.06-.74.06-.59,0-.88-.18-.88-.52a1.92,1.92,0,0,1,.32-.78,2.78,2.78,0,0,1,.76-.86,1.72,1.72,0,0,1,.66-.3,1.61,1.61,0,0,1,.57.08q.33.11,1,.24a9.65,9.65,0,0,0,1.9.14l1.65-.08a6.85,6.85,0,0,1,1.4.14,5.31,5.31,0,0,0,1,.14,3,3,0,0,0,.77-.12,2.77,2.77,0,0,1,.68-.12q1.32,0,1.32,1.41a3.18,3.18,0,0,1-.78,2,5.07,5.07,0,0,1-2,1.5c-.29.14-.44.26-.44.36s.13.32.4.32l1.4,0,1.2.05a7.28,7.28,0,0,1,1.33.16.31.31,0,0,1,.2.32c0,.55-.42.83-1.25.83H77.14a.64.64,0,0,0-.4.08c-.06.05-.08.22-.08.51a.89.89,0,0,0,.08.5c.05.07.18.1.4.1Zm-12.7,6.07a1.58,1.58,0,0,0-.44,0c-.06,0-.08.12-.08.28l0,.84c0,.13,0,.21.08.24a.76.76,0,0,0,.32,0l3.49,0a2,2,0,0,0,1.08-.24.89.89,0,0,0,.42-.51.47.47,0,0,0-.18-.48,1,1,0,0,0-.8-.11Zm3.38-8.88c-.08.08.06.12.4.12h.41c.32.06.52,0,.62-.18s-.08-.39-.5-.63a.72.72,0,0,1-.45-.62.88.88,0,0,1,.17-.57.62.62,0,0,1,.62-.12,5.32,5.32,0,0,0,.94.08,2,2,0,0,0,1.52-.44,1.21,1.21,0,0,0,.4-.68c0-.18-.26-.3-.8-.36a8.08,8.08,0,0,0-1-.12,1.26,1.26,0,0,0-.72.36c-.54.45-1.22,1-2,1.56-.16.11-.24.2-.24.25s.13.14.4.25.44.27.44.49A1.54,1.54,0,0,1,72.59,16.94Z"/><path class="cls-1" d="M107.9,18.1a1.12,1.12,0,0,0,.76-.4c.16-.13.44-.34.84-.62L111,16l1.63-1.16c.47-.33.85-.6,1.14-.82a2.65,2.65,0,0,1,1.32-.71,1.33,1.33,0,0,1,1,.48,1.37,1.37,0,0,1,.46.91c0,.67-.76,1.52-2.29,2.55-.59.38-.88.63-.88.76s.15.22.44.24a7,7,0,0,0,.88,0h1.81l2.14,0,1.87-.05,2.85-.12c.34,0,.52.13.52.4s-.46.93-1.37,2a4.31,4.31,0,0,1-1.56,1.18,5.28,5.28,0,0,1-1.93.41,9.71,9.71,0,0,1-2.22-.19,20.49,20.49,0,0,1-2.47-.68,14.19,14.19,0,0,0-2.6-.48q-1.69-.24-2.13-.24a2.1,2.1,0,0,0-1,.32l-3.44,2a8.18,8.18,0,0,0-1,.73.62.62,0,0,0-.18.46c0,.16,0,.26.1.31a1,1,0,0,0,.54.08l8.38.24a5.44,5.44,0,0,1,1.89.26c.29.14.44.47.44,1s-.13.82-.4,1a3.16,3.16,0,0,1-1.37.22l-9,0c-.35,0-.56,0-.64.14a2.48,2.48,0,0,0-.13,1.14c-.1,1,.46,1.71,1.71,2.09a23.41,23.41,0,0,0,6.07.56,7.69,7.69,0,0,0,4-.74,7,7,0,0,0,2.61-2.81,3.79,3.79,0,0,1,.78-1.19c.2-.16.35-.17.44,0a1.72,1.72,0,0,1,.2.69c0,.32.08.64.1,1a8.37,8.37,0,0,1-.42,2.71A5.85,5.85,0,0,1,118,32.72a5.41,5.41,0,0,1-2.13,1.35,8,8,0,0,1-3,.38c-.78,0-1.64,0-2.57-.06s-2-.11-3.09-.21a11.8,11.8,0,0,1-4.65-1.12,8.27,8.27,0,0,1-1.84-1.68,7.35,7.35,0,0,1-.56-3.55l0-1.44c0-.21-.07-.31-.2-.31a10.09,10.09,0,0,0-1.69.79c-.51.27-1.09.56-1.76.88s-1.43.67-2.29,1-1.58.67-2.16.9-1.09.4-1.51.54a6.72,6.72,0,0,1-1,.25,5,5,0,0,1-.72.06,2.69,2.69,0,0,1-2.21-.95,2.81,2.81,0,0,1-.8-1.58c0-.41.33-.67,1-.78a36,36,0,0,0,7.1-1.91,51.13,51.13,0,0,0,6.58-2.74l2-1c.52-.26.91-.46,1.15-.6.5-.29.76-.47.76-.53s-.23-.1-.68-.1c-1,0-1.87,0-2.57,0s-1.22,0-1.6.05a35.22,35.22,0,0,0-3.76.47q-2.7.36-3.81.6a12,12,0,0,0-1.41.32l-2,.56a1.8,1.8,0,0,1-.54.08,1.39,1.39,0,0,1-.57-.12,1.22,1.22,0,0,1-.46-.4,1.37,1.37,0,0,1-.2-.8,2.43,2.43,0,0,1,1-1.91,3.42,3.42,0,0,1,2.08-.84,6.26,6.26,0,0,1,1.69.2,8.76,8.76,0,0,0,2,.2c.45,0,.88,0,1.28,0s.79-.07,1.17-.12,1-.11,1.88-.16l3.44-.16c.19,0,.31,0,.36-.1a.79.79,0,0,0,.08-.46v-1.2a.26.26,0,0,0-.12-.24,12,12,0,0,0-1.6,0H98.55l-1.7.05a11.58,11.58,0,0,0-2.59.34,4.7,4.7,0,0,1-1.18.26c-.59,0-.88-.3-.88-.91a2.28,2.28,0,0,1,.92-1.71,2.82,2.82,0,0,1,2-.83,2.62,2.62,0,0,1,1,.24,9.53,9.53,0,0,0,2.44.2l2.85.06a.7.7,0,0,0,.42-.08.54.54,0,0,0,.1-.39V12.4a2.74,2.74,0,0,1,.44-1.49,1.21,1.21,0,0,1,1-.46c.35.06.69.1,1,.14a2.76,2.76,0,0,1,.88.24,1.28,1.28,0,0,1,.59.56,1.8,1.8,0,0,1,.12,1l0,1.32c0,.13,0,.21.08.24a3.34,3.34,0,0,0,.77,0h1.44c1.71.05,2.69.11,2.93.16s.4.31.4.69a1,1,0,0,1-.34.83,2.3,2.3,0,0,1-1.42.3l-1.69,0L106,16.1c-.06,0-.09.14-.09.4l0,1.28c0,.22.21.32.64.32Z"/><path class="cls-1" d="M144.05,26.13c0,1.56.1,2.86.14,3.88s.06,1.8.06,2.34a2.66,2.66,0,0,1-.68,2.09,2.52,2.52,0,0,1-1.68.58,1.39,1.39,0,0,1-1.38-.78,6,6,0,0,1-.38-2.45c0-1.15.05-2.31.14-3.51s.13-2.19.13-3a.14.14,0,0,0-.16-.16.54.54,0,0,0-.28.08A39.83,39.83,0,0,1,136,27.76c-1.55.91-3.12,1.74-4.73,2.51-.8.37-1.45.67-1.94.88a10.76,10.76,0,0,1-1.06.4,6,6,0,0,1-1.17.12,4.71,4.71,0,0,1-1.4-.22,3.79,3.79,0,0,1-1.2-.62,3,3,0,0,1-.83-.92,2.15,2.15,0,0,1-.3-1.11c0-.24.16-.39.48-.44a36.93,36.93,0,0,0,3.83-.8c1.33-.34,2.72-.77,4.19-1.27a23.56,23.56,0,0,0,6.34-3c1.28-1,1.92-1.62,1.92-1.92s-.2-.24-.6-.24a22.34,22.34,0,0,0-3,.24,11.51,11.51,0,0,0-2.21.36,2.83,2.83,0,0,1-.92.16,1,1,0,0,1-.76-.32,1.22,1.22,0,0,1-.32-.93c0-.42.32-.89,1-1.42a4.41,4.41,0,0,1,.84-.58,2.36,2.36,0,0,1,.6-.22,1.06,1.06,0,0,1,.44,0,1.59,1.59,0,0,1,.4.18,6.58,6.58,0,0,0,2.49.28,4.68,4.68,0,0,0,.76,0,7.18,7.18,0,0,1,.84,0,2.83,2.83,0,0,0,.45,0,.27.27,0,0,0,.22-.14,1,1,0,0,0,.06-.42v-.89c0-.77.12-1.25.38-1.42a2,2,0,0,1,1.1-.26,2.76,2.76,0,0,1,1.94.62,1.75,1.75,0,0,1,.66,1.26v1c0,.27.15.4.44.4.72,0,1.47.05,2.23.06s1.53.05,2.3.1,1.43.05,1.89.08a6.7,6.7,0,0,1,.84.08.93.93,0,0,1,.56.28,1.09,1.09,0,0,1,.24.8.92.92,0,0,1-.1.46.75.75,0,0,1-.38.29,2.43,2.43,0,0,1-.8.16c-.35,0-.8,0-1.36,0l-5.66,0c-.29,0-.44.06-.44.16s.12.28.36.52a10.55,10.55,0,0,0,.94.6c.5.29,1.17.66,2,1.12s1.82.91,2.91,1.37,2.28.94,3.59,1.42,2.58.84,3.74,1.17,2.26.61,3.27.82c.54.13.8.38.8.76s-.62,1.06-1.88,2.07a5.73,5.73,0,0,1-3.61,1.51A5.17,5.17,0,0,1,153,31.39c-2.22-1.86-4.14-3.46-5.77-4.78s-2.55-2.09-2.61-2.12a.6.6,0,0,0-.36-.12c-.14,0-.2.15-.2.44Zm13.4-10.49.16,2.24a3.81,3.81,0,0,1-.72,2.47,1.93,1.93,0,0,1-1.51.84c-.56,0-.84-.15-.84-.44,0-.72,0-1.58-.13-2.59a5.67,5.67,0,0,0-.18-1.22,2.55,2.55,0,0,0-.34-.72,1.19,1.19,0,0,0-.46-.36l-.54-.18a26.86,26.86,0,0,0-3.45-.35c-1.93-.14-3.69-.2-5.28-.2s-3.26,0-5,.16c-1.28.08-2.34.15-3.17.22s-1.45.12-1.88.17a4.54,4.54,0,0,0-2,.84,2.62,2.62,0,0,0-1,1.72c-.08.47-.14.93-.18,1.37s-.07.86-.1,1.26a.73.73,0,0,1-.22.54,1.32,1.32,0,0,1-.54.31,1.35,1.35,0,0,1-.66,0,.79.79,0,0,1-.54-.34,2.74,2.74,0,0,1-.41-1,13.89,13.89,0,0,1-.24-1.5,12.68,12.68,0,0,1,0-1.63,7.57,7.57,0,0,1,.2-1.42c.08-.47.15-.91.2-1.29a4.13,4.13,0,0,1,.27-1,1.49,1.49,0,0,1,.52-.66,1.54,1.54,0,0,1,1-.2,3,3,0,0,1,1.36.34,3.28,3.28,0,0,0,1.57.34c.32,0,.71,0,1.18,0s1-.06,1.54-.1l1.77-.12q.91-.06,1.8-.06a.53.53,0,0,0,.6-.48c.06-.39.11-.73.16-1a4.74,4.74,0,0,1,.16-.6,2.39,2.39,0,0,1,.61-.72,1.28,1.28,0,0,1,.8-.32c.24.06.53.11.88.16a3.29,3.29,0,0,1,1,.34,2.37,2.37,0,0,1,.82.76,2.45,2.45,0,0,1,.35,1.41c0,.24.21.36.64.36l3,0,1.93.06,2.25.08a2,2,0,0,0,1.2-.32,1.61,1.61,0,0,1,2,0c.18.14.35.28.5.42s.28.32.42.5a1.87,1.87,0,0,1,.44.76C157.43,14.75,157.45,15.11,157.45,15.64Z"/><path class="cls-2" d="M9.1,27.56V25.69h-6a16.49,16.49,0,0,0,2.6,5.51,17.36,17.36,0,0,0,7.38,5.87,1.7,1.7,0,0,0,0-.21V34.69c0-.34.08-.41.44-.41H26c.37,0,.44.06.44.42v2.36a17.07,17.07,0,0,0,6.1-4.29,16.68,16.68,0,0,0,3.89-7.09h-6v1.87h2.76c.37,0,.5.16.33.46-.36.65-.74,1.3-1.16,1.92a13.09,13.09,0,0,1-2.18,2.47c-.48.42-1,.79-1.49,1.19a.77.77,0,0,1-.18.1.26.26,0,0,1-.37-.18,1.21,1.21,0,0,1,0-.19V23.84c0-.35.07-.42.44-.42H38.83c.37,0,.47.12.43.46a16.94,16.94,0,0,1-.66,3.05c-.25.81-.57,1.6-.9,2.39a18.19,18.19,0,0,1-1.92,3.3,19.06,19.06,0,0,1-3.2,3.46,19.56,19.56,0,0,1-8.07,4.12l-.22,0c-.2,0-.32-.11-.32-.34,0-.62,0-1.24,0-1.86V36.69H15.61a1,1,0,0,0,0,.18c0,1,0,2,0,3,0,.36-.16.47-.54.38a21.19,21.19,0,0,1-3.23-1.1A18.71,18.71,0,0,1,8.13,37a19.59,19.59,0,0,1-3.31-3.05A19.16,19.16,0,0,1,2,29.65,18.4,18.4,0,0,1,.52,25.23c-.09-.47-.16-.94-.23-1.4,0-.25.09-.39.36-.41H11c.36,0,.43.07.43.41v9.61c0,.26-.23.37-.47.21s-.56-.39-.83-.61A14.52,14.52,0,0,1,7,29.72c-.36-.55-.68-1.13-1-1.71-.16-.28,0-.45.31-.45H9.1Z"/><path class="cls-2" d="M30.45,17.43V19.3h6a16.54,16.54,0,0,0-2.8-5.77,17.21,17.21,0,0,0-7.18-5.6c0,.08,0,.13,0,.19v2.2c0,.3-.1.39-.42.39H13.55c-.34,0-.41-.07-.41-.39V7.92a17.17,17.17,0,0,0-10,11.39h6V17.43H6.33c-.36,0-.47-.16-.32-.47a14,14,0,0,1,3-4c.58-.54,1.22-1,1.83-1.53a.42.42,0,0,1,.14-.09.27.27,0,0,1,.42.19v9.81c0,.18-.12.25-.3.25H.73c-.38,0-.48-.11-.43-.46a18.69,18.69,0,0,1,1.47-5.25,19.36,19.36,0,0,1,3.35-5.14,20,20,0,0,1,5.6-4.31,19.1,19.1,0,0,1,4.35-1.61l.12,0c.24,0,.39.06.39.3,0,.5,0,1,0,1.52V8.31H24V8.1c0-1,0-2,0-3,0-.31.16-.45.52-.36A20,20,0,0,1,31,7.72,19.8,19.8,0,0,1,36.9,14.1a19.17,19.17,0,0,1,2,5c.17.71.27,1.43.4,2.15,0,.21-.09.33-.32.36H28.48c-.22,0-.31-.08-.33-.27V11.68s0-.07,0-.09a1.13,1.13,0,0,1,.15-.29.28.28,0,0,1,.34,0c.27.2.55.39.81.6a14.43,14.43,0,0,1,3,3.23c.39.58.73,1.19,1.07,1.79.16.29,0,.46-.32.46H30.45Z"/><path class="cls-2" d="M27.41,21.52c0,.59,0,1.19,0,1.78s-.12,1.22-.16,1.83a7.76,7.76,0,0,0,0,1.18,23.68,23.68,0,0,1,.13,2.53,7.43,7.43,0,0,0,.24,2.48,3.56,3.56,0,0,1,.2,1.37,4.42,4.42,0,0,1-.37,1.47,1.25,1.25,0,0,1-.18.24.47.47,0,0,1-.53.12.42.42,0,0,1-.32-.4,3.3,3.3,0,0,0-.37-1.37,4.35,4.35,0,0,1-.3-1.27c-.08-.72-.15-1.43-.2-2.15s-.1-1.59-.13-2.39,0-1.68-.07-2.52c0-1.2-.08-2.39-.14-3.59A5.88,5.88,0,0,0,25,19.22a3.15,3.15,0,0,0-2.1-2,7.08,7.08,0,0,0-2-.38,14,14,0,0,0-1.71-.05,16.57,16.57,0,0,0-1.86.23,3.42,3.42,0,0,0-2.32,1.64,6,6,0,0,0-.88,2.5q-.15,1.35-.27,2.7c-.09.94-.14,1.88-.22,2.83,0,.54-.11,1.09-.18,1.63-.08.7-.17,1.39-.26,2.08-.12.85-.24,1.7-.34,2.55A2.05,2.05,0,0,1,12.54,34a.61.61,0,0,1-.16.16.39.39,0,0,1-.65-.2,3.29,3.29,0,0,1,0-.77c0-.7.06-1.4.09-2.09.05-1,.1-2,.14-2.94,0-1.41.06-2.82.11-4.23s.11-2.86.18-4.28a8.94,8.94,0,0,1,.11-1.27,2.86,2.86,0,0,1,1.12-1.83,9.79,9.79,0,0,1,2.28-1.16c.43-.18.86-.36,1.28-.58a2.26,2.26,0,0,0,.56-.43,1.25,1.25,0,0,0,.37-.92c0-.56,0-1.12.08-1.68a.88.88,0,0,1,.78-.91,1.44,1.44,0,0,1,1,.26,1.65,1.65,0,0,1,.65,1.11c.09.54.15,1.09.21,1.64a.78.78,0,0,0,.55.71c.21.08.43.12.65.18l.46.1a5.55,5.55,0,0,0,.71.13,4.8,4.8,0,0,1,1.7.56,4.4,4.4,0,0,1,2.47,3.35,13.76,13.76,0,0,1,.15,2.4v.22Z"/><path class="cls-2" d="M21,27.12a.74.74,0,0,0-.09.12,7.81,7.81,0,0,0-.3.75.86.86,0,0,0,.29.82.87.87,0,0,1,.24.94,6.48,6.48,0,0,1-.75,1.83,2.1,2.1,0,0,1-.46.48.42.42,0,0,1-.67-.29,1.88,1.88,0,0,1,0-.53,7.32,7.32,0,0,0,0-1.62c0-.32,0-.64-.06-1,0-.61-.06-1.22-.1-1.89-.18.17-.35.3-.5.45a9.45,9.45,0,0,0-1.17,1.44,2.85,2.85,0,0,1-.43.49.69.69,0,0,1-1,0,.94.94,0,0,1-.25-1.17,4,4,0,0,1,.42-.52l1.79-2c.2-.22.42-.43.62-.65a.71.71,0,0,0,.1-.14c.19-.29.16-.45-.14-.65A2.23,2.23,0,0,0,18,23.7a3.25,3.25,0,0,1-2-2A4.15,4.15,0,0,1,15.66,20a2.08,2.08,0,0,1,.5-1.36,1.14,1.14,0,0,1,1.07-.45.86.86,0,0,1,.71.73,2.2,2.2,0,0,1,0,.36,2.12,2.12,0,0,0,.39,1.15.24.24,0,0,0,.06.08.67.67,0,0,0,.29.1c.05,0,.12-.14.13-.23,0-.55,0-1.11,0-1.66a1.94,1.94,0,0,1,.27-1.15,1,1,0,0,1,1.29-.37,1.11,1.11,0,0,1,.47.68,3,3,0,0,1,0,1.46c-.07.37-.13.74-.19,1.11a1.34,1.34,0,0,0,0,.2.52.52,0,0,0,.37.57.78.78,0,0,0,.83-.19,1.83,1.83,0,0,0,.41-1,4.81,4.81,0,0,1,.24-1.29,1,1,0,0,1,.92-.64.71.71,0,0,1,.69.39,2.1,2.1,0,0,1,.19,1.18,4.07,4.07,0,0,1-.75,2.21A6.07,6.07,0,0,1,22.47,23c-.36.28-.73.54-1.09.81a.29.29,0,0,0-.09.44.69.69,0,0,0,.16.18,24.91,24.91,0,0,1,2.28,2.19,1.7,1.7,0,0,1,.56,1.09,2.4,2.4,0,0,1-.09.7c0,.18-.31.28-.56.26a2,2,0,0,1-1.24-.56,1.51,1.51,0,0,0-.28-.22,4.58,4.58,0,0,1-1-.72S21,27.16,21,27.12Z"/></svg>