<?xml version="1.0" encoding="utf-8"?>
<!-- Generator: Adobe Illustrator 22.1.0, SVG Export Plug-In . SVG Version: 6.00 Build 0)  -->
<svg version="1.1" id="图层_1" xmlns="http://www.w3.org/2000/svg" xmlns:xlink="http://www.w3.org/1999/xlink" x="0px" y="0px"
	 viewBox="0 0 32.9 29.5" style="enable-background:new 0 0 32.9 29.5;" xml:space="preserve">
<style type="text/css">
	.st0{fill-rule:evenodd;clip-rule:evenodd;fill:#E50012;}
</style>
<g>
	<path class="st0" d="M7.4,19c0-0.5,0-1,0-1.6c-1.7,0-3.3,0-5,0c0.4,1.7,1.2,3.2,2.2,4.6c1.6,2.1,3.6,3.8,6.2,4.9c0-0.1,0-0.1,0-0.2
		c0-0.6,0-1.2,0-1.8c0-0.3,0.1-0.3,0.4-0.3c3.5,0,7,0,10.5,0c0.3,0,0.4,0.1,0.4,0.3c0,0.6,0,1.2,0,1.8c0,0,0,0.1,0,0.2
		c2-0.8,3.7-2,5.1-3.6c1.6-1.7,2.7-3.7,3.3-5.9c-1.7,0-3.4,0-5,0c0,0.5,0,1,0,1.6c0.1,0,0.1,0,0.2,0c0.7,0,1.4,0,2.2,0
		c0.3,0,0.4,0.1,0.3,0.4c-0.3,0.5-0.6,1.1-1,1.6c-0.5,0.8-1.1,1.4-1.8,2c-0.4,0.3-0.8,0.7-1.3,1c0,0-0.1,0.1-0.1,0.1
		c-0.1,0.1-0.3,0-0.3-0.1c0-0.1,0-0.1,0-0.2c0-2.6,0-5.3,0-7.9c0-0.3,0.1-0.3,0.4-0.3c2.9,0,5.8,0,8.6,0c0.3,0,0.4,0.1,0.4,0.4
		c-0.1,0.9-0.3,1.7-0.6,2.5c-0.2,0.7-0.5,1.3-0.8,2c-0.4,1-1,1.9-1.6,2.8c-0.8,1.1-1.7,2-2.7,2.9c-2,1.6-4.2,2.8-6.8,3.4
		c-0.1,0-0.1,0-0.2,0c-0.2,0-0.3-0.1-0.3-0.3c0-0.5,0-1,0-1.5c0-0.4,0-0.8,0-1.1c-2.4,0-4.7,0-7.1,0c0,0,0,0.1,0,0.2
		c0,0.8,0,1.6,0,2.5c0,0.3-0.1,0.4-0.5,0.3c-0.9-0.2-1.8-0.5-2.7-0.9c-1.1-0.5-2.1-1.1-3.1-1.8c-1-0.7-2-1.6-2.8-2.5
		c-1-1.1-1.8-2.3-2.4-3.6c-0.6-1.2-1-2.4-1.3-3.7c-0.1-0.4-0.1-0.8-0.2-1.2c0-0.2,0.1-0.3,0.3-0.3c0,0,0.1,0,0.1,0
		c2.9,0,5.7,0,8.6,0c0.3,0,0.4,0.1,0.4,0.3c0,2.6,0,5.3,0,7.9c0,0,0,0.1,0,0.1c0,0.2-0.2,0.3-0.4,0.2c-0.2-0.2-0.5-0.3-0.7-0.5
		c-1-0.8-1.9-1.7-2.6-2.8c-0.3-0.5-0.6-0.9-0.9-1.4c-0.1-0.2,0-0.4,0.3-0.4c0.7,0,1.4,0,2.2,0C7.3,19,7.4,19,7.4,19z"/>
	<path class="st0" d="M25.5,10.5c0,0.5,0,1,0,1.6c1.7,0,3.3,0,5,0c-0.5-1.7-1.2-3.3-2.4-4.8c-1.6-2-3.6-3.6-6.1-4.7
		c0,0.1,0,0.1,0,0.2c0,0.6,0,1.2,0,1.8C22.1,4.9,22,5,21.7,5c-3.5,0-7,0-10.5,0c-0.3,0-0.3-0.1-0.4-0.3c0-0.6,0-1.2,0-1.8
		c0-0.1,0-0.1,0-0.2C9,3.4,7.5,4.4,6.1,5.8c-1.8,1.8-3,3.9-3.7,6.3c1.7,0,3.4,0,5,0c0-0.5,0-1,0-1.6c-0.1,0-0.1,0-0.2,0
		c-0.7,0-1.4,0-2.2,0c-0.3,0-0.4-0.1-0.3-0.4c0.6-1.2,1.5-2.4,2.5-3.4c0.5-0.4,1-0.9,1.5-1.3C9,5.5,9,5.5,9,5.5
		c0.2-0.1,0.3,0,0.3,0.2c0,0,0,0.1,0,0.1c0,2.6,0,5.3,0,7.9c0,0,0,0.1,0,0.1c0,0.1-0.1,0.2-0.3,0.2c-2.9,0-5.8,0-8.8,0
		C0.1,14,0,13.9,0,13.6c0.2-1.5,0.6-3,1.2-4.4C2,7.7,2.9,6.2,4.1,5C5.4,3.5,7,2.3,8.8,1.4c1.2-0.6,2.4-1,3.7-1.3c0,0,0.1,0,0.1,0
		c0.2,0,0.3,0.1,0.3,0.2c0,0.4,0,0.8,0,1.3c0,0.4,0,0.9,0,1.3c0,0.1,0,0.1,0,0.2c2.4,0,4.7,0,7.1,0c0-0.1,0-0.1,0-0.2
		c0-0.8,0-1.6,0-2.5C20,0.1,20.1,0,20.4,0c2,0.5,3.9,1.3,5.5,2.4c0.9,0.6,1.8,1.4,2.6,2.2c0.9,1,1.7,2,2.4,3.1
		c0.8,1.3,1.3,2.7,1.7,4.1c0.1,0.6,0.2,1.2,0.3,1.8c0,0.2-0.1,0.3-0.3,0.3c-0.1,0-0.1,0-0.2,0c-2.9,0-5.8,0-8.7,0
		c-0.2,0-0.3-0.1-0.3-0.2c0,0,0-0.1,0-0.1c0-2.6,0-5.2,0-7.9c0,0,0-0.1,0-0.1c0-0.1,0.1-0.2,0.1-0.2c0.1-0.1,0.2,0,0.3,0
		c0.2,0.2,0.5,0.3,0.7,0.5c1,0.8,1.9,1.7,2.5,2.7c0.3,0.5,0.6,1,0.9,1.5c0.1,0.2,0,0.4-0.3,0.4c-0.7,0-1.5,0-2.2,0
		C25.6,10.5,25.5,10.5,25.5,10.5z"/>
	<path class="st0" d="M22.9,14c0,0.5,0,1,0,1.5c0,0.5-0.1,1-0.1,1.5c0,0.3,0,0.7,0,1c0.1,0.7,0.1,1.4,0.1,2.1c0,0.7,0,1.4,0.2,2.1
		c0.1,0.4,0.2,0.7,0.2,1.1c0,0.4-0.1,0.8-0.3,1.2c0,0.1-0.1,0.1-0.1,0.2c-0.1,0.1-0.3,0.2-0.5,0.1c-0.2-0.1-0.3-0.2-0.3-0.3
		c0-0.4-0.1-0.8-0.3-1.1c-0.2-0.3-0.2-0.7-0.3-1.1c-0.1-0.6-0.1-1.2-0.2-1.8c0-0.7-0.1-1.3-0.1-2c0-0.7,0-1.4-0.1-2.1
		c0-1-0.1-2-0.1-3c0-0.5,0-0.9-0.2-1.3c-0.3-0.8-0.9-1.4-1.8-1.7c-0.5-0.2-1.1-0.3-1.7-0.3c-0.5,0-1-0.1-1.5,0c-0.5,0-1,0.1-1.6,0.2
		c-0.9,0.2-1.5,0.7-2,1.4c-0.4,0.6-0.7,1.3-0.7,2.1c-0.1,0.7-0.2,1.5-0.2,2.2c-0.1,0.8-0.1,1.6-0.2,2.4c0,0.5-0.1,0.9-0.2,1.4
		c-0.1,0.6-0.1,1.2-0.2,1.7c-0.1,0.7-0.2,1.4-0.3,2.1c0,0.3-0.1,0.6-0.3,0.9c0,0.1-0.1,0.1-0.1,0.1c-0.2,0.2-0.5,0.1-0.5-0.2
		c0-0.2,0-0.4,0-0.6c0-0.6,0.1-1.2,0.1-1.7c0-0.8,0.1-1.6,0.1-2.4c0-1.2,0.1-2.3,0.1-3.5c0-1.2,0.1-2.4,0.1-3.6c0-0.4,0-0.7,0.1-1.1
		c0.1-0.6,0.4-1.1,0.9-1.5c0.6-0.4,1.3-0.7,1.9-1c0.4-0.1,0.7-0.3,1.1-0.5c0.2-0.1,0.3-0.2,0.5-0.4c0.2-0.2,0.3-0.5,0.3-0.8
		c0-0.5,0-0.9,0.1-1.4c0-0.4,0.3-0.7,0.7-0.8c0.3,0,0.6,0,0.9,0.2c0.3,0.2,0.5,0.6,0.5,0.9c0.1,0.4,0.1,0.9,0.2,1.4
		c0,0.3,0.2,0.5,0.5,0.6c0.2,0.1,0.4,0.1,0.5,0.1c0.1,0,0.3,0.1,0.4,0.1c0.2,0,0.4,0.1,0.6,0.1c0.5,0,1,0.3,1.4,0.5
		c1.3,0.6,1.8,1.6,2.1,2.8c0.1,0.7,0.1,1.3,0.1,2C22.9,13.8,22.9,13.9,22.9,14C22.9,14,22.9,14,22.9,14z"/>
	<path class="st0" d="M17.5,18.6C17.5,18.7,17.4,18.7,17.5,18.6c-0.2,0.3-0.3,0.5-0.3,0.7c-0.1,0.3,0.1,0.5,0.2,0.7
		c0.2,0.2,0.3,0.5,0.2,0.8c-0.2,0.5-0.3,1.1-0.6,1.5c-0.1,0.1-0.2,0.3-0.4,0.4c-0.2,0.2-0.5,0-0.6-0.2c0-0.1,0-0.3,0-0.4
		c0.1-0.5,0-0.9,0-1.4c0-0.3,0-0.5,0-0.8c0-0.5-0.1-1-0.1-1.6c-0.2,0.1-0.3,0.2-0.4,0.4c-0.4,0.4-0.7,0.8-1,1.2
		c-0.1,0.1-0.2,0.3-0.4,0.4c-0.3,0.3-0.6,0.2-0.9,0c-0.3-0.3-0.4-0.7-0.2-1c0.1-0.2,0.2-0.3,0.4-0.4c0.5-0.6,1-1.1,1.5-1.7
		c0.2-0.2,0.3-0.4,0.5-0.5c0,0,0.1-0.1,0.1-0.1c0.2-0.2,0.1-0.4-0.1-0.5c-0.1-0.1-0.3-0.2-0.4-0.2c-0.9-0.3-1.4-0.9-1.7-1.7
		c-0.2-0.4-0.3-0.9-0.3-1.4c0-0.4,0.1-0.8,0.4-1.1c0.2-0.3,0.5-0.4,0.9-0.4c0.4,0.1,0.5,0.3,0.6,0.6c0,0.1,0,0.2,0,0.3
		c0,0.4,0.1,0.7,0.3,1c0,0,0,0.1,0.1,0.1c0.1,0,0.2,0.1,0.2,0.1c0,0,0.1-0.1,0.1-0.2c0-0.5,0-0.9,0-1.4c0-0.3,0-0.7,0.2-1
		c0.2-0.3,0.7-0.5,1.1-0.3c0.2,0.1,0.3,0.3,0.4,0.6c0.1,0.4,0.1,0.8,0,1.2c-0.1,0.3-0.1,0.6-0.2,0.9c0,0.1,0,0.1,0,0.2
		c0,0.3,0.1,0.4,0.3,0.5c0.3,0.1,0.5,0,0.7-0.2c0.2-0.2,0.3-0.5,0.4-0.9c0-0.4,0.1-0.7,0.2-1.1c0.1-0.3,0.4-0.5,0.8-0.5
		c0.3,0,0.5,0.1,0.6,0.3c0.2,0.3,0.2,0.6,0.2,1c0,0.7-0.2,1.3-0.6,1.8c-0.3,0.4-0.6,0.7-1,1c-0.3,0.2-0.6,0.4-0.9,0.7
		c-0.1,0.1-0.2,0.2-0.1,0.4c0,0.1,0.1,0.1,0.1,0.2c0.7,0.5,1.3,1.2,1.9,1.8c0.3,0.3,0.4,0.6,0.5,0.9c0,0.2,0,0.4-0.1,0.6
		c0,0.1-0.3,0.2-0.5,0.2c-0.4,0-0.8-0.2-1-0.5c-0.1-0.1-0.1-0.1-0.2-0.2C18.1,19.1,17.8,18.9,17.5,18.6
		C17.6,18.7,17.5,18.6,17.5,18.6z"/>
</g>
</svg>
